<?xml version="1.0" standalone="no"?>
<!DOCTYPE svg PUBLIC "-//W3C//DTD SVG 20010904//EN"
 "http://www.w3.org/TR/2001/REC-SVG-20010904/DTD/svg10.dtd">
<svg version="1.0" xmlns="http://www.w3.org/2000/svg"
 width="260.000000pt" height="260.000000pt" viewBox="0 0 260.000000 260.000000"
 preserveAspectRatio="xMidYMid meet">
<metadata>
Created by potrace 1.11, written by Peter Selinger 2001-2013
</metadata>
<g transform="translate(0.000000,260.000000) scale(0.100000,-0.100000)"
fill="#000000" stroke="none">
<path d="M0 1300 l0 -1299 1300 -1 1301 0 -3 39 c-1 23 -6 37 -11 34 -6 -4 -7
-1 -1 8 12 20 14 99 2 99 -7 0 -6 5 1 14 13 16 11 66 -4 66 -6 0 -7 3 0 8 15
11 17 32 4 48 -6 8 -7 14 -2 14 15 0 15 893 0 902 -9 6 -9 8 0 8 8 0 11 172
12 680 l1 680 -470 -1 c-352 0 -470 -4 -470 -12 0 -9 -2 -9 -8 0 -11 18 -141
14 -172 -5 -23 -14 -24 -14 -11 1 12 15 11 17 -7 17 -12 0 -24 -4 -27 -10 -3
-5 -12 -10 -18 -10 -7 0 -6 4 3 10 13 9 13 10 0 10 -9 0 -22 -6 -29 -12 -10
-9 -12 -10 -7 -1 5 9 -149 12 -689 12 l-695 1 0 -1300z m897 1284 c-3 -3 -12
-4 -19 -1 -8 3 -5 6 6 6 11 1 17 -2 13 -5z m58 -4 c-3 -5 -12 -10 -18 -10 -7
0 -6 4 3 10 19 12 23 12 15 0z m355 -40 c-14 -11 -32 -20 -40 -20 -8 0 -1 9
15 19 39 26 57 26 25 1z m-360 6 c0 -2 -8 -10 -17 -17 -16 -13 -17 -12 -4 4
13 16 21 21 21 13z m177 -12 c-3 -3 -12 -4 -19 -1 -8 3 -5 6 6 6 11 1 17 -2
13 -5z m-686 -44 c5 0 9 -4 9 -10 0 -5 -9 -10 -21 -10 -11 0 -18 4 -15 9 4 5
3 11 -1 14 -5 2 -2 2 5 0 8 -1 18 -3 23 -3z m92 -7 c-7 -2 -19 -2 -25 0 -7 3
-2 5 12 5 14 0 19 -2 13 -5z m1630 -17 c3 -8 0 -16 -6 -19 -7 -3 -13 3 -13 14
0 22 12 25 19 5z m-588 -6 c3 -6 -1 -7 -9 -4 -18 7 -21 14 -7 14 6 0 13 -4 16
-10z m799 -175 c-4 -8 -8 -15 -10 -15 -2 0 -4 7 -4 15 0 8 4 15 10 15 5 0 7
-7 4 -15z m-297 -19 c3 -3 7 -737 5 -903 l-2 -111 -362 1 -363 2 2 235 c0 129
2 359 2 510 l1 275 357 -3 c196 -2 358 -4 360 -6z m-804 -163 c-1 -93 -2 -206
-3 -253 -1 -47 1 -199 3 -337 3 -182 1 -253 -7 -254 -46 -3 -741 2 -745 6 -2
3 -6 228 -8 500 l-3 494 48 3 c26 2 198 5 382 6 l335 2 -2 -167z m1095 92 c1
-13 -3 -27 -8 -30 -6 -4 -10 7 -10 24 0 37 15 42 18 6z m-1 -60 c0 -8 -4 -15
-9 -15 -4 0 -8 7 -8 15 0 8 4 15 8 15 5 0 9 -7 9 -15z m30 -467 c-3 -8 -6 -5
-6 6 -1 11 2 17 5 13 3 -3 4 -12 1 -19z m-132 -308 c-3 -5 -14 -10 -23 -10
-15 0 -15 2 -2 10 20 13 33 13 25 0z m2 -26 c-3 -3 -12 -4 -19 -1 -8 3 -5 6 6
6 11 1 17 -2 13 -5z m147 -140 c3 -8 2 -12 -4 -9 -6 3 -10 10 -10 16 0 14 7
11 14 -7z m-179 -34 c-3 -5 -12 -10 -18 -10 -7 0 -6 4 3 10 19 12 23 12 15 0z
m165 -34 c0 -2 -7 -6 -15 -10 -8 -3 -15 -1 -15 4 0 6 7 10 15 10 8 0 15 -2 15
-4z m-10 -86 c-8 -5 -22 -9 -30 -9 -10 0 -8 3 5 9 27 12 43 12 25 0z m-1120
-516 l0 -184 -319 0 c-175 0 -346 3 -380 6 l-61 7 0 178 0 179 380 -2 380 -1
0 -183z m798 171 c4 -3 7 -84 7 -178 l0 -172 -362 -3 -362 -4 0 187 0 187 355
-5 c195 -2 358 -8 362 -12z m222 -389 c0 -2 -7 -7 -16 -10 -8 -3 -12 -2 -9 4
6 10 25 14 25 6z m10 -21 c-7 -8 -17 -15 -23 -15 -6 0 -2 7 9 15 25 19 30 19
14 0z m-43 -111 c-3 -3 -12 -4 -19 -1 -8 3 -5 6 6 6 11 1 17 -2 13 -5z m323
-134 c-8 -5 -18 -6 -24 -3 -5 4 -1 10 10 13 24 9 34 2 14 -10z m-40 6 c0 -3
-4 -8 -10 -11 -5 -3 -10 -1 -10 4 0 6 5 11 10 11 6 0 10 -2 10 -4z"/>
</g>
</svg>
